<svg width="22" height="25" viewBox="0 0 22 25" fill="none" xmlns="http://www.w3.org/2000/svg">
<path d="M5 0.5L3 2.5L5 4.5L7 2.5L5 0.5ZM7 2.5L9 4.5L11 2.5L9 0.5L7 2.5ZM11 2.5L13 4.5L15 2.5L13 0.5L11 2.5ZM15 2.5L17 4.5L19 2.5L17 0.5L15 2.5ZM17 4.5H0V24.5H22V4.5H17ZM2 6.5H20V22.5H14V17.5H8V22.5H2V6.5ZM4 8.5V10.5H6V8.5H4ZM8 8.5V10.5H10V8.5H8ZM12 8.5V10.5H14V8.5H12ZM16 8.5V10.5H18V8.5H16ZM4 11.5V13.5H6V11.5H4ZM8 11.5V13.5H10V11.5H8ZM12 11.5V13.5H14V11.5H12ZM16 11.5V13.5H18V11.5H16ZM4 14.5V16.5H6V14.5H4ZM8 14.5V16.5H10V14.5H8ZM12 14.5V16.5H14V14.5H12ZM16 14.5V16.5H18V14.5H16ZM4 17.5V19.5H6V17.5H4ZM16 17.5V19.5H18V17.5H16ZM10 19.5H12V22.5H10V19.5Z" fill="white"/>
</svg>
