<svg width="150" height="150" viewBox="0 0 150 150" fill="none" xmlns="http://www.w3.org/2000/svg">
<path d="M92.6859 59.1652C92.6984 59.4136 92.7062 59.6636 92.7062 59.912C92.7109 60.1667 92.7062 60.4214 92.6968 60.6745C92.6265 62.5823 92.2374 64.4464 91.5609 66.1948C87.1484 68.7152 80.8171 71.3277 72.8874 71.9745C72.8874 71.9745 82.0578 72.2745 90.2187 68.5417C90.3218 68.4933 90.4265 68.4448 90.5328 68.3964C91.7046 67.8433 92.8531 67.2058 93.9484 66.4683C93.8624 66.5589 91.7343 68.7542 89.3093 70.287C87.2046 73.1183 84.2078 75.3261 80.5734 76.437C73.3984 78.6292 65.8921 75.887 61.7062 70.148C61.6359 70.0527 61.5671 69.9558 61.4999 69.8589C65.0453 68.9433 67.1312 67.948 67.1312 67.948C64.0281 68.6323 60.8718 68.8886 60.8718 68.8886C53.7406 69.6667 48.7265 68.9292 48.0109 66.5855C47.3124 64.3011 50.8531 60.998 56.9078 57.7386C56.8921 57.8652 56.8781 57.9917 56.8656 58.1167C53.2015 60.3839 51.189 62.5527 51.6687 64.123C52.0906 65.5011 54.3624 66.1886 57.8171 66.223C58.0984 66.2245 58.389 66.2245 58.6859 66.2183C58.9703 66.212 59.2578 66.2011 59.5546 66.1886C64.0499 65.9839 70.0421 64.8777 76.4406 62.9214C82.8406 60.9667 88.4249 58.5339 92.2671 56.1902C92.5203 56.0355 92.7656 55.8823 93.0031 55.7292C93.2515 55.5667 93.4937 55.4074 93.7249 55.2464C96.5734 53.2855 98.0718 51.4449 97.6499 50.0683C97.1703 48.498 94.2843 47.823 89.9812 47.9917C89.9015 47.8949 89.8171 47.798 89.7343 47.7027C96.5812 47.0214 101.361 47.7792 102.059 50.062C102.777 52.4058 99.0312 55.8214 92.6859 59.1652Z" fill="#EDA419"/>
<path d="M91.8938 54.8411C91.7797 54.913 91.6704 54.9802 91.5672 55.0427C90.586 55.6427 89.5063 56.238 88.3407 56.8224C87.861 57.0645 87.3641 57.3052 86.8547 57.5427C83.6766 59.0302 79.9829 60.4333 76.0485 61.6364C74.4797 62.1145 72.9266 62.5458 71.4047 62.927C67.0188 64.0239 62.9 64.6911 59.4938 64.8458C59.3688 64.852 59.2407 64.8567 59.1063 64.8614C59.0079 64.5224 58.9172 64.1786 58.8391 63.838C58.3188 61.5552 58.2829 59.2599 58.6719 57.0692C58.6875 56.9786 58.7047 56.8927 58.7235 56.802C58.8157 56.3192 58.9297 55.8442 59.0625 55.3755C59.1422 55.377 59.2219 55.377 59.3016 55.3786C61.3579 55.402 63.2907 55.2536 65.0688 54.9942C72.5625 53.9036 77.3782 50.8864 77.525 50.7927C72.9 52.6536 68.6032 53.5067 64.9782 53.8255C62.9329 54.0067 61.1016 54.0208 59.5391 53.9458C56.111 53.7927 53.9922 53.2349 53.8157 53.1864C54.0485 53.2224 57.2141 53.6786 59.9313 53.0052C60.7047 51.2833 61.7641 49.6895 63.0641 48.302C65.0438 46.1942 67.5829 44.5599 70.5469 43.652C76.8313 41.7317 83.3672 43.5958 87.7047 47.9427C87.7688 48.0052 87.8313 48.0692 87.8938 48.1349C89.675 49.9739 91.0657 52.2427 91.8938 54.8411Z" fill="#3F8CD2"/>
</svg>
