<svg xmlns="http://www.w3.org/2000/svg" fill="none" viewBox="133.55 119.54 151.1 148.83">
<path d="M258.285 164.875C258.32 165.567 258.342 166.264 258.342 166.956C258.355 167.666 258.342 168.376 258.315 169.081C258.12 174.397 257.035 179.592 255.15 184.464C242.854 191.487 225.211 198.768 203.113 200.57C203.113 200.57 228.668 201.406 251.41 191.004C251.697 190.869 251.989 190.734 252.285 190.599C255.551 189.058 258.751 187.281 261.803 185.226C261.564 185.479 255.633 191.596 248.876 195.868C243.011 203.757 234.659 209.91 224.531 213.006C204.537 219.115 183.62 211.473 171.955 195.48C171.759 195.215 171.567 194.945 171.38 194.675C181.26 192.123 187.073 189.35 187.073 189.35C178.425 191.257 169.63 191.971 169.63 191.971C149.757 194.139 135.785 192.084 133.791 185.553C131.844 179.187 141.711 169.982 158.583 160.899C158.54 161.252 158.501 161.605 158.466 161.953C148.255 168.271 142.647 174.315 143.984 178.691C145.159 182.531 151.49 184.447 161.117 184.543C161.901 184.547 162.711 184.547 163.538 184.529C164.331 184.512 165.132 184.482 165.959 184.447C178.486 183.876 195.184 180.794 213.015 175.342C230.849 169.895 246.411 163.116 257.118 156.584C257.823 156.153 258.507 155.727 259.169 155.3C259.861 154.847 260.536 154.403 261.18 153.955C269.118 148.49 273.294 143.361 272.118 139.525C270.781 135.149 262.739 133.268 250.748 133.738C250.526 133.468 250.291 133.198 250.06 132.933C269.14 131.034 282.459 133.146 284.406 139.507C286.404 146.039 275.967 155.557 258.285 164.875Z" fill="#EDA419"/>
<path d="M256.077 152.823C255.759 153.023 255.455 153.21 255.167 153.384C252.433 155.056 249.424 156.715 246.176 158.344C244.839 159.019 243.455 159.689 242.035 160.351C233.179 164.496 222.886 168.406 211.922 171.759C207.55 173.091 203.222 174.293 198.981 175.356C186.759 178.412 175.281 180.271 165.789 180.702C165.441 180.72 165.084 180.733 164.71 180.746C164.435 179.801 164.183 178.843 163.965 177.894C162.515 171.533 162.415 165.136 163.499 159.032C163.543 158.779 163.59 158.54 163.643 158.287C163.9 156.942 164.217 155.618 164.588 154.312C164.81 154.316 165.032 154.316 165.254 154.321C170.984 154.386 176.37 153.972 181.325 153.249C202.208 150.21 215.627 141.802 216.036 141.541C203.148 146.727 191.174 149.104 181.072 149.993C175.373 150.498 170.27 150.537 165.916 150.328C156.363 149.901 150.458 148.347 149.966 148.212C150.615 148.312 159.437 149.583 167.009 147.707C169.164 142.908 172.116 138.467 175.739 134.601C181.255 128.727 188.331 124.172 196.591 121.643C214.103 116.291 232.317 121.486 244.404 133.599C244.582 133.773 244.757 133.952 244.931 134.135C249.894 139.259 253.77 145.582 256.077 152.823Z" fill="#3F8CD2"/>
<path d="M157.731 268.264H162.757C162.987 268.264 163.14 268.111 163.14 267.881V246.635C163.14 246.405 163.292 246.252 163.519 246.252H170.071C170.297 246.252 170.45 246.1 170.45 245.873V241.492C170.45 241.266 170.297 241.113 170.071 241.113H150.383C150.152 241.113 150 241.266 150 241.492V245.873C150 246.1 150.152 246.252 150.383 246.252H156.97C157.2 246.252 157.353 246.405 157.353 246.635V267.881C157.353 268.111 157.505 268.264 157.731 268.264Z" fill="white"/>
<path d="M187.588 268.377C195.432 268.377 201.142 262.512 201.142 254.671C201.142 246.826 195.432 241 187.588 241C179.743 241 173.991 246.826 173.991 254.671C173.991 262.512 179.743 268.377 187.588 268.377ZM187.588 263.238C183.437 263.238 179.743 260.306 179.743 254.671C179.743 249.032 183.437 246.139 187.588 246.139C191.7 246.139 195.355 249.032 195.355 254.671C195.355 260.306 191.7 263.238 187.588 263.238Z" fill="white"/>
<path d="M217.212 268.377C226.771 268.377 229.056 261.676 229.056 256.573V241.492C229.056 241.266 228.904 241.113 228.673 241.113H223.648C223.421 241.113 223.269 241.266 223.269 241.492V256.573C223.152 261.18 220.906 263.238 217.212 263.238C213.444 263.238 211.121 261.141 211.121 256.573V241.492C211.121 241.266 210.969 241.113 210.738 241.113H205.752C205.521 241.113 205.369 241.266 205.369 241.492V256.573C205.369 261.676 207.654 268.377 217.212 268.377Z" fill="white"/>
<path d="M233.281 268.264H238.272C238.498 268.264 238.65 268.111 238.65 267.881V260.345C238.65 260.114 238.803 259.962 239.033 259.962H243.449C243.641 259.962 243.828 260.04 243.906 260.228L247.905 267.998C247.979 268.186 248.17 268.264 248.362 268.264H253.77C254.035 268.264 254.188 268.072 254.035 267.807L249.467 259.201C249.353 259.009 249.389 258.744 249.58 258.666C252.513 256.916 254.266 254.175 254.266 250.52C254.266 244.998 249.963 241.113 244.515 241.113H233.281C233.055 241.113 232.902 241.266 232.902 241.492V267.881C232.902 268.111 233.055 268.264 233.281 268.264ZM239.033 254.858C238.803 254.858 238.65 254.706 238.65 254.48V246.635C238.65 246.405 238.803 246.252 239.033 246.252H243.867C246.343 246.252 248.475 247.775 248.475 250.52C248.475 253.222 246.304 254.858 244.02 254.858H239.033Z" fill="white"/>
<path d="M267.822 268.264H272.808C273.039 268.264 273.191 268.15 273.191 267.881V256.307C273.191 256.116 273.265 255.963 273.343 255.811L283.547 241.57C283.699 241.34 283.625 241.113 283.32 241.113H277.76C277.568 241.113 277.416 241.152 277.303 241.34L270.563 250.786C270.411 251.012 270.181 251.012 270.028 250.786L263.327 241.34C263.214 241.152 263.062 241.113 262.871 241.113H257.31C257.006 241.113 256.931 241.34 257.083 241.57L267.287 255.811C267.4 255.963 267.439 256.116 267.439 256.307V267.881C267.439 268.111 267.592 268.264 267.822 268.264Z" fill="white"/>
</svg>