<svg xmlns="http://www.w3.org/2000/svg" fill="none" viewBox="45.7 34.9 58.95 53.85">
<path d="M92.6859 51.1652C92.6984 51.4136 92.7062 51.6636 92.7062 51.912C92.7109 52.1667 92.7062 52.4214 92.6968 52.6745C92.6265 54.5823 92.2374 56.4464 91.5609 58.1948C87.1484 60.7152 80.8171 63.3277 72.8874 63.9745C72.8874 63.9745 82.0578 64.2745 90.2187 60.5417C90.3218 60.4933 90.4265 60.4448 90.5328 60.3964C91.7046 59.8433 92.8531 59.2058 93.9484 58.4683C93.8624 58.5589 91.7343 60.7542 89.3093 62.287C87.2046 65.1183 84.2078 67.3261 80.5734 68.437C73.3984 70.6292 65.8921 67.887 61.7062 62.148C61.6359 62.0527 61.5671 61.9558 61.4999 61.8589C65.0453 60.9433 67.1312 59.948 67.1312 59.948C64.0281 60.6323 60.8718 60.8886 60.8718 60.8886C53.7406 61.6667 48.7265 60.9292 48.0109 58.5855C47.3124 56.3011 50.8531 52.998 56.9078 49.7386C56.8921 49.8652 56.8781 49.9917 56.8656 50.1167C53.2015 52.3839 51.189 54.5527 51.6687 56.123C52.0906 57.5011 54.3624 58.1886 57.8171 58.223C58.0984 58.2245 58.389 58.2245 58.6859 58.2183C58.9703 58.212 59.2578 58.2011 59.5546 58.1886C64.0499 57.9839 70.0421 56.8777 76.4406 54.9214C82.8406 52.9667 88.4249 50.5339 92.2671 48.1902C92.5203 48.0355 92.7656 47.8823 93.0031 47.7292C93.2515 47.5667 93.4937 47.4074 93.7249 47.2464C96.5734 45.2855 98.0718 43.4449 97.6499 42.0683C97.1703 40.498 94.2843 39.823 89.9812 39.9917C89.9015 39.8949 89.8171 39.798 89.7343 39.7027C96.5812 39.0214 101.361 39.7792 102.059 42.062C102.777 44.4058 99.0312 47.8214 92.6859 51.1652Z" fill="#EDA419"/>
<path d="M91.8938 46.8411C91.7797 46.913 91.6704 46.9802 91.5672 47.0427C90.586 47.6427 89.5063 48.238 88.3407 48.8224C87.861 49.0645 87.3641 49.3052 86.8547 49.5427C83.6766 51.0302 79.9829 52.4333 76.0485 53.6364C74.4797 54.1145 72.9266 54.5458 71.4047 54.927C67.0188 56.0239 62.9 56.6911 59.4938 56.8458C59.3688 56.852 59.2407 56.8567 59.1063 56.8614C59.0079 56.5224 58.9172 56.1786 58.8391 55.838C58.3188 53.5552 58.2829 51.2599 58.6719 49.0692C58.6875 48.9786 58.7047 48.8927 58.7235 48.802C58.8157 48.3192 58.9297 47.8442 59.0625 47.3755C59.1422 47.377 59.2219 47.377 59.3016 47.3786C61.3579 47.402 63.2907 47.2536 65.0688 46.9942C72.5625 45.9036 77.3782 42.8864 77.525 42.7927C72.9 44.6536 68.6032 45.5067 64.9782 45.8255C62.9329 46.0067 61.1016 46.0208 59.5391 45.9458C56.111 45.7927 53.9922 45.2349 53.8157 45.1864C54.0485 45.2224 57.2141 45.6786 59.9313 45.0052C60.7047 43.2833 61.7641 41.6895 63.0641 40.302C65.0438 38.1942 67.5829 36.5599 70.5469 35.652C76.8313 33.7317 83.3672 35.5958 87.7047 39.9427C87.7688 40.0052 87.8313 40.0692 87.8938 40.1349C89.675 41.9739 91.0657 44.2427 91.8938 46.8411Z" fill="#3F8CD2"/>
<path d="M49.1148 88.6969H51.332C51.4335 88.6969 51.5007 88.6297 51.5007 88.5281V79.1547C51.5007 79.0531 51.5679 78.9859 51.6679 78.9859H54.5585C54.6585 78.9859 54.7257 78.9188 54.7257 78.8188V76.8859C54.7257 76.7859 54.6585 76.7188 54.5585 76.7188H45.8726C45.771 76.7188 45.7039 76.7859 45.7039 76.8859V78.8188C45.7039 78.9188 45.771 78.9859 45.8726 78.9859H48.7789C48.8804 78.9859 48.9476 79.0531 48.9476 79.1547V88.5281C48.9476 88.6297 49.0148 88.6969 49.1148 88.6969Z" fill="#2B314C"/>
<path d="M62.2865 88.7471C65.7475 88.7471 68.2662 86.1596 68.2662 82.7002C68.2662 79.2393 65.7475 76.6689 62.2865 76.6689C58.8256 76.6689 56.2881 79.2393 56.2881 82.7002C56.2881 86.1596 58.8256 88.7471 62.2865 88.7471ZM62.2865 86.4799C60.4553 86.4799 58.8256 85.1861 58.8256 82.7002C58.8256 80.2127 60.4553 78.9361 62.2865 78.9361C64.1006 78.9361 65.7131 80.2127 65.7131 82.7002C65.7131 85.1861 64.1006 86.4799 62.2865 86.4799Z" fill="#2B314C"/>
<path d="M75.3563 88.7469C79.5735 88.7469 80.5813 85.7906 80.5813 83.5391V76.8859C80.5813 76.7859 80.5142 76.7188 80.4126 76.7188H78.1954C78.0954 76.7188 78.0282 76.7859 78.0282 76.8859V83.5391C77.9767 85.5719 76.986 86.4797 75.3563 86.4797C73.6938 86.4797 72.6688 85.5547 72.6688 83.5391V76.8859C72.6688 76.7859 72.6017 76.7188 72.5001 76.7188H70.3001C70.1985 76.7188 70.1313 76.7859 70.1313 76.8859V83.5391C70.1313 85.7906 71.1392 88.7469 75.3563 88.7469Z" fill="#2B314C"/>
<path d="M82.4458 88.6969H84.6473C84.7473 88.6969 84.8145 88.6297 84.8145 88.5281V85.2031C84.8145 85.1016 84.8817 85.0344 84.9833 85.0344H86.9317C87.0161 85.0344 87.0989 85.0688 87.1333 85.1516L88.8973 88.5797C88.9301 88.6625 89.0145 88.6969 89.0989 88.6969H91.4848C91.602 88.6969 91.6692 88.6125 91.602 88.4953L89.5864 84.6984C89.5364 84.6141 89.552 84.4969 89.6364 84.4625C90.9301 83.6906 91.7036 82.4813 91.7036 80.8688C91.7036 78.4328 89.8051 76.7188 87.402 76.7188H82.4458C82.3458 76.7188 82.2786 76.7859 82.2786 76.8859V88.5281C82.2786 88.6297 82.3458 88.6969 82.4458 88.6969ZM84.9833 82.7828C84.8817 82.7828 84.8145 82.7156 84.8145 82.6156V79.1547C84.8145 79.0531 84.8817 78.9859 84.9833 78.9859H87.1161C88.2083 78.9859 89.1489 79.6578 89.1489 80.8688C89.1489 82.0609 88.1911 82.7828 87.1833 82.7828H84.9833Z" fill="#2B314C"/>
<path d="M97.6841 88.6969H99.8841C99.9857 88.6969 100.053 88.6469 100.053 88.5281V83.4219C100.053 83.3375 100.086 83.2703 100.12 83.2031L104.622 76.9203C104.689 76.8188 104.656 76.7188 104.522 76.7188H102.069C101.984 76.7188 101.917 76.7359 101.867 76.8188L98.8935 80.9859C98.8263 81.0859 98.7248 81.0859 98.6576 80.9859L95.7013 76.8188C95.6513 76.7359 95.5841 76.7188 95.4998 76.7188H93.0466C92.9123 76.7188 92.8795 76.8188 92.9466 76.9203L97.4482 83.2031C97.4982 83.2703 97.5154 83.3375 97.5154 83.4219V88.5281C97.5154 88.6297 97.5826 88.6969 97.6841 88.6969Z" fill="#2B314C"/>
</svg>