<svg width="24" height="25" viewBox="0 0 24 25" fill="none" xmlns="http://www.w3.org/2000/svg">
<path d="M15.053 13.8779L14.7774 13.8779L14.6303 14.1109L9.72443 21.8779L8.68221 21.8779L11.0028 14.5285L11.2082 13.8779L10.526 13.8779L5.166 13.8779L4.87174 13.8779L4.72888 14.1352L3.20574 16.8779L2.62331 16.8779L3.48809 12.9864L3.5122 12.8779L3.48809 12.7695L2.62331 8.87793L3.20583 8.87793L4.72994 11.6208L4.87283 11.8779L5.167 11.8779L10.527 11.8779L11.2093 11.8779L11.0038 11.2273L8.68229 3.87793L9.72443 3.87793L14.6303 11.6449L14.7774 11.8779L15.053 11.8779L20.5 11.8779C20.7652 11.8779 21.0196 11.9833 21.2071 12.1708C21.3946 12.3584 21.5 12.6127 21.5 12.8779C21.5 13.1431 21.3946 13.3975 21.2071 13.585C21.0196 13.7726 20.7652 13.8779 20.5 13.8779L15.053 13.8779Z" stroke="black" stroke-opacity="0.8"/>
</svg>
