<svg width="252" height="145" viewBox="0 0 252 145" fill="none" xmlns="http://www.w3.org/2000/svg">
<g opacity="0.6">
<path d="M120.716 85.1399C142.884 85.1399 160.856 67.1686 160.856 44.9999C160.856 22.8312 142.884 4.85986 120.716 4.85986C98.547 4.85986 80.5757 22.8312 80.5757 44.9999C80.5757 67.1686 98.547 85.1399 120.716 85.1399Z" fill="#0B3D91"/>
<path d="M118.346 13.0201C118.594 13.0201 118.796 12.8186 118.796 12.5701C118.796 12.3216 118.594 12.1201 118.346 12.1201C118.097 12.1201 117.896 12.3216 117.896 12.5701C117.896 12.8186 118.097 13.0201 118.346 13.0201Z" fill="white"/>
<path d="M122.966 13.6202C123.214 13.6202 123.416 13.4187 123.416 13.1702C123.416 12.9217 123.214 12.7202 122.966 12.7202C122.717 12.7202 122.516 12.9217 122.516 13.1702C122.516 13.4187 122.717 13.6202 122.966 13.6202Z" fill="white"/>
<path d="M129.026 21.7804C129.274 21.7804 129.476 21.5789 129.476 21.3304C129.476 21.0818 129.274 20.8804 129.026 20.8804C128.777 20.8804 128.576 21.0818 128.576 21.3304C128.576 21.5789 128.777 21.7804 129.026 21.7804Z" fill="white"/>
<path d="M95.7859 63.7804C96.0345 63.7804 96.2359 63.5789 96.2359 63.3304C96.2359 63.0818 96.0345 62.8804 95.7859 62.8804C95.5374 62.8804 95.3359 63.0818 95.3359 63.3304C95.3359 63.5789 95.5374 63.7804 95.7859 63.7804Z" fill="white"/>
<path d="M96.9559 67.3805C97.2044 67.3805 97.4059 67.179 97.4059 66.9305C97.4059 66.6819 97.2044 66.4805 96.9559 66.4805C96.7073 66.4805 96.5059 66.6819 96.5059 66.9305C96.5059 67.179 96.7073 67.3805 96.9559 67.3805Z" fill="white"/>
<path d="M91.3756 64.2072C91.5617 64.2072 91.7126 64.0563 91.7126 63.8702C91.7126 63.6841 91.5617 63.5332 91.3756 63.5332C91.1895 63.5332 91.0386 63.6841 91.0386 63.8702C91.0386 64.0563 91.1895 64.2072 91.3756 64.2072Z" fill="white"/>
<path d="M109.676 71.28C109.863 71.28 110.014 71.1287 110.014 70.942C110.014 70.7553 109.863 70.604 109.676 70.604C109.489 70.604 109.338 70.7553 109.338 70.942C109.338 71.1287 109.489 71.28 109.676 71.28Z" fill="white"/>
<path d="M138.378 65.3171C138.564 65.3171 138.715 65.1662 138.715 64.9801C138.715 64.794 138.564 64.6431 138.378 64.6431C138.191 64.6431 138.041 64.794 138.041 64.9801C138.041 65.1662 138.191 65.3171 138.378 65.3171Z" fill="white"/>
<path d="M146.719 56.258C146.906 56.258 147.057 56.1067 147.057 55.92C147.057 55.7334 146.906 55.582 146.719 55.582C146.532 55.582 146.381 55.7334 146.381 55.92C146.381 56.1067 146.532 56.258 146.719 56.258Z" fill="white"/>
<path d="M105.836 24.299C106.022 24.299 106.173 24.1481 106.173 23.962C106.173 23.7759 106.022 23.625 105.836 23.625C105.649 23.625 105.499 23.7759 105.499 23.962C105.499 24.1481 105.649 24.299 105.836 24.299Z" fill="white"/>
<path d="M115.016 17.5573C115.202 17.5573 115.353 17.4064 115.353 17.2203C115.353 17.0342 115.202 16.8833 115.016 16.8833C114.83 16.8833 114.679 17.0342 114.679 17.2203C114.679 17.4064 114.83 17.5573 115.016 17.5573Z" fill="white"/>
<path d="M114.019 16.8971C114.205 16.8971 114.356 16.7463 114.356 16.5601C114.356 16.374 114.205 16.2231 114.019 16.2231C113.833 16.2231 113.682 16.374 113.682 16.5601C113.682 16.7463 113.833 16.8971 114.019 16.8971Z" fill="white"/>
<path d="M113.119 16.2375C113.305 16.2375 113.456 16.0866 113.456 15.9005C113.456 15.7144 113.305 15.5635 113.119 15.5635C112.933 15.5635 112.782 15.7144 112.782 15.9005C112.782 16.0866 112.933 16.2375 113.119 16.2375Z" fill="white"/>
<path d="M107.276 26.0402C107.462 26.0402 107.613 25.8893 107.613 25.7032C107.613 25.5171 107.462 25.3662 107.276 25.3662C107.09 25.3662 106.939 25.5171 106.939 25.7032C106.939 25.8893 107.09 26.0402 107.276 26.0402Z" fill="white"/>
<path d="M120.798 8.49724C120.984 8.49724 121.135 8.34636 121.135 8.16024C121.135 7.97412 120.984 7.82324 120.798 7.82324C120.612 7.82324 120.461 7.97412 120.461 8.16024C120.461 8.34636 120.612 8.49724 120.798 8.49724Z" fill="white"/>
<path d="M123.019 18.2175C123.205 18.2175 123.356 18.0666 123.356 17.8805C123.356 17.6943 123.205 17.5435 123.019 17.5435C122.833 17.5435 122.682 17.6943 122.682 17.8805C122.682 18.0666 122.833 18.2175 123.019 18.2175Z" fill="white"/>
<path d="M119.516 16.319C119.702 16.319 119.853 16.1681 119.853 15.982C119.853 15.7959 119.702 15.645 119.516 15.645C119.33 15.645 119.179 15.7959 119.179 15.982C119.179 16.1681 119.33 16.319 119.516 16.319Z" fill="white"/>
<path d="M113.516 18.9001C113.702 18.9001 113.853 18.7492 113.853 18.5631C113.853 18.377 113.702 18.2261 113.516 18.2261C113.33 18.2261 113.179 18.377 113.179 18.5631C113.179 18.7492 113.33 18.9001 113.516 18.9001Z" fill="white"/>
<path d="M139.976 74.2204C140.162 74.2204 140.313 74.0695 140.313 73.8834C140.313 73.6973 140.162 73.5464 139.976 73.5464C139.79 73.5464 139.639 73.6973 139.639 73.8834C139.639 74.0695 139.79 74.2204 139.976 74.2204Z" fill="white"/>
<path d="M95.2159 65.9485C95.4026 65.9485 95.5539 65.7971 95.5539 65.6105C95.5539 65.4238 95.4026 65.2725 95.2159 65.2725C95.0293 65.2725 94.8779 65.4238 94.8779 65.6105C94.8779 65.7971 95.0293 65.9485 95.2159 65.9485Z" fill="white"/>
<path d="M118.676 70.2981C118.863 70.2981 119.014 70.1467 119.014 69.9601C119.014 69.7734 118.863 69.6221 118.676 69.6221C118.489 69.6221 118.338 69.7734 118.338 69.9601C118.338 70.1467 118.489 70.2981 118.676 70.2981Z" fill="white"/>
<path d="M102.198 65.6784C102.385 65.6784 102.536 65.5271 102.536 65.3404C102.536 65.1538 102.385 65.0024 102.198 65.0024C102.011 65.0024 101.86 65.1538 101.86 65.3404C101.86 65.5271 102.011 65.6784 102.198 65.6784Z" fill="white"/>
<path d="M105.116 70.4411C105.303 70.4411 105.454 70.2898 105.454 70.1031C105.454 69.9165 105.303 69.7651 105.116 69.7651C104.929 69.7651 104.778 69.9165 104.778 70.1031C104.778 70.2898 104.929 70.4411 105.116 70.4411Z" fill="white"/>
<path d="M126.596 67.4401C126.782 67.4401 126.933 67.2892 126.933 67.1031C126.933 66.917 126.782 66.7661 126.596 66.7661C126.41 66.7661 126.259 66.917 126.259 67.1031C126.259 67.2892 126.41 67.4401 126.596 67.4401Z" fill="white"/>
<path d="M138.438 60.757C138.624 60.757 138.775 60.6061 138.775 60.42C138.775 60.2339 138.624 60.083 138.438 60.083C138.251 60.083 138.101 60.2339 138.101 60.42C138.101 60.6061 138.251 60.757 138.438 60.757Z" fill="white"/>
<path d="M147.416 64.8591C147.602 64.8591 147.753 64.7082 147.753 64.5221C147.753 64.3359 147.602 64.1851 147.416 64.1851C147.229 64.1851 147.079 64.3359 147.079 64.5221C147.079 64.7082 147.229 64.8591 147.416 64.8591Z" fill="white"/>
<path d="M150.476 66.8171C150.662 66.8171 150.813 66.6662 150.813 66.4801C150.813 66.294 150.662 66.1431 150.476 66.1431C150.29 66.1431 150.139 66.294 150.139 66.4801C150.139 66.6662 150.29 66.8171 150.476 66.8171Z" fill="white"/>
<path d="M150.979 61.4772C151.165 61.4772 151.316 61.3263 151.316 61.1402C151.316 60.9541 151.165 60.8032 150.979 60.8032C150.792 60.8032 150.642 60.9541 150.642 61.1402C150.642 61.3263 150.792 61.4772 150.979 61.4772Z" fill="white"/>
<path d="M106.338 53.9172C106.524 53.9172 106.675 53.7663 106.675 53.5802C106.675 53.394 106.524 53.2432 106.338 53.2432C106.152 53.2432 106.001 53.394 106.001 53.5802C106.001 53.7663 106.152 53.9172 106.338 53.9172Z" fill="white"/>
<path d="M106.466 61.7701C106.714 61.7701 106.916 61.5686 106.916 61.3201C106.916 61.0716 106.714 60.8701 106.466 60.8701C106.217 60.8701 106.016 61.0716 106.016 61.3201C106.016 61.5686 106.217 61.7701 106.466 61.7701Z" fill="white"/>
<path d="M109.166 67.4703C109.414 67.4703 109.616 67.2688 109.616 67.0203C109.616 66.7718 109.414 66.5703 109.166 66.5703C108.917 66.5703 108.716 66.7718 108.716 67.0203C108.716 67.2688 108.917 67.4703 109.166 67.4703Z" fill="white"/>
<path d="M141.506 61.5304C141.754 61.5304 141.956 61.3289 141.956 61.0804C141.956 60.8318 141.754 60.6304 141.506 60.6304C141.257 60.6304 141.056 60.8318 141.056 61.0804C141.056 61.3289 141.257 61.5304 141.506 61.5304Z" fill="white"/>
<path d="M153.146 60.8702C153.394 60.8702 153.596 60.6687 153.596 60.4202C153.596 60.1717 153.394 59.9702 153.146 59.9702C152.897 59.9702 152.696 60.1717 152.696 60.4202C152.696 60.6687 152.897 60.8702 153.146 60.8702Z" fill="white"/>
<path d="M147.386 58.4103C147.634 58.4103 147.836 58.2088 147.836 57.9603C147.836 57.7117 147.634 57.5103 147.386 57.5103C147.137 57.5103 146.936 57.7117 146.936 57.9603C146.936 58.2088 147.137 58.4103 147.386 58.4103Z" fill="white"/>
<path d="M141.506 58.65C141.754 58.65 141.956 58.4485 141.956 58.2C141.956 57.9515 141.754 57.75 141.506 57.75C141.257 57.75 141.056 57.9515 141.056 58.2C141.056 58.4485 141.257 58.65 141.506 58.65Z" fill="white"/>
<path d="M129.377 12.2883L130.496 12.1813L129.379 12.1183C129.344 11.9023 129.171 11.7333 128.953 11.7053L128.846 10.5913L128.782 11.7143C128.58 11.7593 128.425 11.9283 128.4 12.1383L127.256 12.2423L128.408 12.3043C128.45 12.4973 128.606 12.6483 128.802 12.6843L128.906 13.8323L128.967 12.6863C129.174 12.6513 129.338 12.4923 129.377 12.2883Z" fill="white"/>
<path d="M110.491 24.7463L111.61 24.6393L110.493 24.5763C110.459 24.3603 110.285 24.1913 110.067 24.1633L109.96 23.0493L109.897 24.1723C109.694 24.2173 109.539 24.3863 109.514 24.5963L108.37 24.7003L109.522 24.7623C109.564 24.9553 109.72 25.1063 109.916 25.1423L110.02 26.2903L110.082 25.1443C110.289 25.1103 110.453 24.9503 110.491 24.7463Z" fill="white"/>
<path d="M152.326 57.6843L153.445 57.5773L152.328 57.5143C152.294 57.2983 152.12 57.1293 151.902 57.1013L151.795 55.9873L151.732 57.1103C151.53 57.1553 151.375 57.3243 151.35 57.5343L150.206 57.6383L151.358 57.7003C151.4 57.8933 151.556 58.0443 151.752 58.0803L151.856 59.2283L151.918 58.0823C152.123 58.0483 152.287 57.8893 152.326 57.6843Z" fill="white"/>
<path d="M106.711 74.9064L107.83 74.7995L106.713 74.7365C106.678 74.5205 106.505 74.3514 106.287 74.3234L106.18 73.2104L106.117 74.3325C105.914 74.3775 105.759 74.5464 105.734 74.7564L104.59 74.8605L105.742 74.9224C105.784 75.1154 105.94 75.2675 106.136 75.3025L106.24 76.4504L106.302 75.3045C106.508 75.2705 106.673 75.1104 106.711 74.9064Z" fill="white"/>
<path d="M148.771 66.5061L149.89 66.3991L148.773 66.3361C148.739 66.1201 148.565 65.9511 148.347 65.9231L148.24 64.8091L148.177 65.9311C147.975 65.9761 147.82 66.1451 147.795 66.3551L146.651 66.4591L147.803 66.5211C147.845 66.7141 148.001 66.8651 148.197 66.9011L148.301 68.0491L148.363 66.9031C148.568 66.8701 148.733 66.7101 148.771 66.5061Z" fill="white"/>
<path d="M130.235 35.3852C125.568 37.1992 121.016 38.8182 117.175 40.0202C109.37 42.4642 88.0147 49.0802 75.1147 57.4202L76.1947 57.8402C84.0547 53.4002 89.1637 52.0052 94.0747 50.4602C99.4147 48.7802 116.678 44.7402 124.495 42.5402C127.136 41.7972 130.229 40.8242 133.505 39.6402C132.743 38.5772 131.939 37.5112 131.093 36.4472C130.81 36.0882 130.523 35.7342 130.235 35.3852ZM135.937 43.2442C134.807 44.0072 133.86 44.6162 133.197 45.0002C129.357 47.2202 110.636 60.0002 106.377 62.9402C102.118 65.8802 90.2967 77.0402 86.8167 80.2802L86.6967 81.5992C97.9167 71.5192 101.437 69.0332 105.897 65.6402C111.417 61.4402 122.836 53.6702 126.717 51.1802C130.427 48.8002 133.773 46.6112 136.776 44.6082C136.727 44.5262 136.678 44.4442 136.629 44.3612C136.403 43.9902 136.172 43.6182 135.937 43.2442ZM153.476 24.7202C148.01 27.9242 139.395 31.7912 131.037 35.0722C131.237 35.3172 131.436 35.5642 131.634 35.8132C132.568 36.9892 133.449 38.1732 134.278 39.3582C140.848 36.9382 148.057 33.6902 153.777 29.7592C151.052 32.3412 142.043 39.0742 136.55 42.8272C136.833 43.2882 137.107 43.7492 137.372 44.2082C145.694 38.6392 151.294 34.5402 154.557 31.7992C159.057 28.0192 169.317 19.5592 173.217 8.21924C166.376 16.9202 158.288 21.8992 153.476 24.7202Z" fill="#FC3D21"/>
<path d="M115.551 54.9392C114.666 53.8252 113.442 52.3332 112.523 51.1762C111.294 49.6292 110.157 48.0662 109.115 46.5052C108.775 46.5902 108.436 46.6752 108.097 46.7602C109.355 48.7232 110.752 50.6832 112.274 52.5992C113.386 53.9992 114.397 55.1262 114.915 55.8272C115.02 55.9692 115.228 56.2832 115.509 56.7012C115.833 56.4812 116.16 56.2592 116.49 56.0352C116.171 55.6882 115.856 55.3232 115.551 54.9392ZM122.011 60.8032C121.284 60.1152 119.521 58.9662 117.686 57.2422C117.281 57.5202 116.872 57.8022 116.462 58.0862C117.647 59.7562 119.261 61.8072 120.525 62.4052C122.429 63.3072 122.942 61.6852 122.011 60.8032ZM131.634 35.8132C121.142 22.6072 108.325 15.3522 102.799 19.7432C98.5065 23.1532 100.269 33.1192 106.185 43.5882C106.491 43.4832 106.794 43.3802 107.094 43.2782C101.123 33.0782 99.4885 23.5992 103.537 20.3822C108.624 16.3402 120.907 23.6232 131.095 36.4462C133.204 39.1002 135.058 41.7642 136.628 44.3612C142.64 54.3112 144.485 63.3092 140.331 66.9822C139.06 68.1062 135.176 68.5472 130.088 66.2572C130.017 66.3462 130.131 66.5872 130.22 66.6462C134.612 68.4122 138.819 69.0852 140.943 67.3982C146.047 63.3422 142.126 49.0192 131.634 35.8132Z" fill="white"/>
<path d="M86.6357 37.3804H93.3557L98.9957 46.9504C98.9957 46.9504 98.9957 40.0204 98.9957 39.4804C98.9957 38.6404 97.9307 37.5454 97.5557 37.3804C98.0057 37.3804 101.936 37.3804 102.206 37.3804C101.921 37.4554 101.006 38.5654 101.006 39.4804C101.006 39.9304 101.006 49.9804 101.006 50.4604C101.006 51.1354 101.981 52.0654 102.446 52.4254H95.9657L90.2357 42.8104C90.2357 42.8104 90.2357 49.9804 90.2357 50.3704C90.2357 51.1204 90.9707 51.8404 91.7357 52.4554H86.7857C87.4907 52.1554 88.1657 51.2104 88.2257 50.4604C88.2857 49.7104 88.2257 40.0354 88.2257 39.6154C88.2257 38.7004 87.3407 37.9504 86.6357 37.3804Z" fill="white"/>
<path d="M148.106 52.4254H157.046C156.551 52.3054 155.996 51.7204 155.696 50.9404C155.396 50.1604 150.656 37.3804 150.656 37.3804H147.257C146.293 38.0744 145.26 38.8064 144.157 39.5774C144.154 39.6054 144.151 39.6334 144.146 39.6604C143.998 40.5604 141.338 50.1944 141.176 50.6704C140.951 51.3304 139.796 52.0654 139.331 52.4554H144.146C143.666 51.9154 143.276 51.3904 143.366 50.7904C143.456 50.1904 143.726 48.9904 143.726 48.9904H148.706C148.931 49.5904 149.099 50.1294 149.186 50.6404C149.291 51.2554 148.661 51.9454 148.106 52.4254ZM144.176 47.0704L145.856 41.5804L148.076 47.0704H144.176ZM143.419 37.9284C143.666 37.7464 143.914 37.5634 144.161 37.3804H142.856C142.986 37.5004 143.201 37.6894 143.419 37.9284Z" fill="white"/>
<path d="M109.226 50.7904C109.316 50.1904 109.586 48.9904 109.586 48.9904H114.566C114.791 49.5904 114.959 50.1294 115.046 50.6404C115.151 51.2554 114.521 51.9454 113.966 52.4254H121.837C122.001 52.3154 122.164 52.2054 122.327 52.0964C122.022 51.8264 121.741 51.4214 121.556 50.9404C121.256 50.1604 116.516 37.3804 116.516 37.3804H108.716C109.091 37.7254 110.171 38.6554 110.006 39.6604C109.859 40.5604 107.198 50.1944 107.036 50.6704C106.811 51.3304 105.656 52.0654 105.191 52.4554H110.006C109.526 51.9154 109.136 51.3904 109.226 50.7904ZM111.716 41.5804L113.936 47.0704H110.036L111.716 41.5804Z" fill="white"/>
<path d="M136.415 44.8484C134.947 45.8264 133.398 46.8474 131.766 47.9134C132.498 48.2684 133.081 48.7144 133.137 49.2904C133.241 50.3724 131.067 50.8954 129.102 50.6704C128.709 50.6254 128.323 50.5224 127.955 50.3844C127.547 50.6474 127.135 50.9124 126.717 51.1804C126.292 51.4534 125.776 51.7894 125.187 52.1774V53.7304C125.577 52.9654 126.43 52.2804 127.092 52.2454C127.377 52.2304 128.367 53.1454 132.447 52.9204C134.427 52.8114 138.252 50.7004 138.192 48.2704C138.156 46.8344 137.406 45.7144 136.415 44.8484ZM125.186 48.6004V50.1824C125.547 49.9414 125.903 49.7044 126.252 49.4734C125.703 49.0914 125.314 48.7344 125.186 48.6004ZM135.02 43.8554C134.64 43.6304 134.255 43.4334 133.886 43.2594C131.966 42.3594 129.956 42.1944 129.536 40.9794C129.24 40.1224 130.076 39.3294 132.116 39.3594C134.156 39.3894 136.046 40.6044 136.556 41.0394V37.1694C136.406 37.3194 135.748 38.0744 135.146 37.9494C133.991 37.7094 132.026 37.3964 129.776 37.4094C127.196 37.4244 124.976 39.4184 124.901 41.9394C124.796 45.4644 127.616 46.4244 129.206 46.9794C129.37 47.0364 129.557 47.0974 129.76 47.1624C131.285 46.1704 132.491 45.4064 133.197 44.9994C133.671 44.7264 134.292 44.3344 135.02 43.8554Z" fill="white"/>
</g>
<g opacity="0.6">
<path d="M245.475 114.551C232.309 116.281 215.237 120.967 204.47 125.821C194.818 130.172 182.712 138.039 177.858 143.06L176.073 144.901L180.759 144.789L185.445 144.734L189.797 140.996C199.17 132.962 209.379 126.937 221.765 122.083C228.571 119.405 240.566 116.113 247.316 115.053C249.492 114.663 251.333 114.272 251.333 114.161C251.333 113.882 250.385 113.938 245.475 114.551Z" fill="white"/>
<path d="M81.788 126.546C80.6164 127.829 80.1701 128.777 80.5048 129.168C83.6848 133.296 85.6375 136.365 85.3585 136.811C85.1354 137.146 82.4575 137.369 79.1101 137.313C73.7542 137.257 73.1406 137.369 71.9132 138.541C71.1879 139.21 70.5742 139.991 70.5742 140.27C70.5742 140.493 74.7027 140.716 79.7795 140.716H88.9849L90.2122 142.669C90.9375 143.729 91.8859 144.622 92.3323 144.622C92.7786 144.677 94.4523 144.733 96.0702 144.845C98.3018 144.956 98.8597 144.789 98.5807 144.231C97.6323 142.613 84.2427 124.593 83.908 124.593C83.6848 124.537 82.7364 125.43 81.788 126.546Z" fill="white"/>
<path d="M2.23159 126.49C0.278949 128.387 0.278949 132.738 2.1758 134.97L3.51476 136.532L13.6127 136.699L23.7107 136.867V139.043V141.274L11.8832 141.386L0 141.553L1.50633 143.115L3.01265 144.622H15.0633C26.3328 144.622 27.1139 144.566 28.1739 143.506C29.736 141.944 29.736 136.42 28.2297 134.524C27.1697 133.24 26.8907 133.185 16.7927 133.017L6.41583 132.85V130.618V128.443H17.5738C27.337 128.443 28.676 128.331 28.3412 127.606C27.5602 125.486 25.2728 125.095 14.2264 125.095C3.68213 125.095 3.57055 125.095 2.23159 126.49Z" fill="white"/>
<path d="M37.6582 134.858V144.622H40.7266H43.7951V141.051V137.48L53.6141 137.257L63.4331 137.09L64.7721 135.528C65.7763 134.356 66.111 133.296 66.111 131.455C66.111 125.597 64.8837 125.095 49.653 125.095H37.6582V134.858ZM60.532 129.614C60.9226 130.228 61.0342 131.399 60.8668 132.125L60.532 133.464H52.1636H43.7951V130.953V128.443H51.8846C59.472 128.443 59.9741 128.498 60.532 129.614Z" fill="white"/>
<path d="M107.005 125.653C106.335 125.932 105.554 126.657 105.22 127.271C104.55 128.498 104.383 141.776 105.052 142.725C106.112 144.343 108.176 144.622 119.334 144.622C130.102 144.622 130.883 144.566 131.943 143.506C132.557 142.892 133.059 142.111 133.059 141.832C133.059 141.497 128.986 141.274 121.901 141.274H110.743V134.858V128.443H121.901C128.038 128.443 133.059 128.219 133.059 127.996C133.059 127.717 132.557 127.048 131.887 126.434C130.827 125.486 129.655 125.374 119.446 125.263C113.309 125.207 107.674 125.374 107.005 125.653Z" fill="white"/>
<path d="M141.427 126.769V128.443H155.096H168.764V126.769V125.095H155.096H141.427V126.769Z" fill="white"/>
<path d="M177.467 125.597C178.137 126.155 186.115 132.013 187.063 132.571C187.677 132.906 192.754 130.507 192.754 129.837C192.754 129.726 191.303 128.61 189.574 127.383C186.394 125.151 186.226 125.095 181.652 125.095C178.974 125.095 177.133 125.318 177.467 125.597Z" fill="white"/>
<path d="M141.427 138.206V144.622H154.817H168.206V142.948V141.274H157.885H147.564V138.206V135.137H153.701H159.838V133.464V131.79H150.633H141.427V138.206Z" fill="white"/>
<path d="M197.608 136.755C196.436 137.648 195.543 138.596 195.599 138.875C195.655 139.099 197.496 140.605 199.728 142.111C202.629 144.12 204.247 144.901 205.362 144.845C206.255 144.789 208.263 144.678 209.77 144.622L212.559 144.566L210.941 143.339C204.247 138.373 199.895 135.137 199.839 135.137C199.783 135.137 198.779 135.919 197.608 136.755Z" fill="white"/>
</g>
</svg>
